HIERARCHY
ROOT Hips
{
	OFFSET 0.00000 0.00000 0.00000
	CHANNELS 6 Xposition Yposition Zposition Zrotation Yrotation Xrotation 
	JOINT LHipJoint
	{
		OFFSET 0 0 0
		CHANNELS 3 Zrotation Yrotation Xrotation
		JOINT LeftUpLeg
		{
			OFFSET 1.76014 -1.80163 0.38499
			CHANNELS 3 Zrotation Yrotation Xrotation
			JOINT LeftLeg
			{
				OFFSET 2.46817 -6.78126 0.00000
				CHANNELS 3 Zrotation Yrotation Xrotation
				JOINT LeftFoot
				{
					OFFSET 2.79348 -7.67503 0.00000
					CHANNELS 3 Zrotation Yrotation Xrotation
					JOINT LeftToeBase
					{
						OFFSET 0.09421 -0.25885 1.91403
						CHANNELS 3 Zrotation Yrotation Xrotation
						End Site
						{
							OFFSET 0.00000 -0.00000 0.97975
						}
					}
				}
			}
		}
	}
	JOINT RHipJoint
	{
		OFFSET 0 0 0
		CHANNELS 3 Zrotation Yrotation Xrotation
		JOINT RightUpLeg
		{
			OFFSET -1.77926 -1.80163 0.38499
			CHANNELS 3 Zrotation Yrotation Xrotation
			JOINT RightLeg
			{
				OFFSET -2.51996 -6.92353 0.00000
				CHANNELS 3 Zrotation Yrotation Xrotation
				JOINT RightFoot
				{
					OFFSET -2.76109 -7.58603 0.00000
					CHANNELS 3 Zrotation Yrotation Xrotation
					JOINT RightToeBase
					{
						OFFSET -0.08067 -0.22163 1.86812
						CHANNELS 3 Zrotation Yrotation Xrotation
						End Site
						{
							OFFSET -0.00000 -0.00000 0.95558
						}
					}
				}
			}
		}
	}
	JOINT LowerBack
	{
		OFFSET 0 0 0
		CHANNELS 3 Zrotation Yrotation Xrotation
		JOINT Spine
		{
			OFFSET 0.05537 1.92033 -0.03713
			CHANNELS 3 Zrotation Yrotation Xrotation
			JOINT Spine1
			{
				OFFSET 0.04452 1.90073 0.10860
				CHANNELS 3 Zrotation Yrotation Xrotation
				JOINT Neck
				{
					OFFSET 0 0 0
					CHANNELS 3 Zrotation Yrotation Xrotation
					JOINT Neck1
					{
						OFFSET 0.00903 1.74649 0.02074
						CHANNELS 3 Zrotation Yrotation Xrotation
						JOINT Head
						{
							OFFSET -0.08608 1.67844 -0.12081
							CHANNELS 3 Zrotation Yrotation Xrotation
							End Site
							{
								OFFSET -0.03521 1.83380 -0.05059
							}
						}
					}
				}
				JOINT LeftShoulder
				{
					OFFSET 0 0 0
					CHANNELS 3 Zrotation Yrotation Xrotation
					JOINT LeftArm
					{
						OFFSET 3.28197 0.84325 -0.19106
						CHANNELS 3 Zrotation Yrotation Xrotation
						JOINT LeftForeArm
						{
							OFFSET 5.24318 -0.00000 -0.00000
							CHANNELS 3 Zrotation Yrotation Xrotation
							JOINT LeftHand
							{
								OFFSET 2.98999 -0.00000 0.00000
								CHANNELS 3 Zrotation Yrotation Xrotation
								JOINT LeftFingerBase
								{
									OFFSET 0 0 0
									CHANNELS 3 Zrotation Yrotation Xrotation
									JOINT LeftHandIndex1
									{
										OFFSET 0.72674 -0.00000 0.00000
										CHANNELS 3 Zrotation Yrotation Xrotation
										End Site
										{
											OFFSET 0.58592 -0.00000 0.00000
										}
									}
								}
								JOINT LThumb
								{
									OFFSET 0 0 0
									CHANNELS 3 Zrotation Yrotation Xrotation
									End Site
									{
										OFFSET 0.59487 -0.00000 0.59487
									}
								}
							}
						}
					}
				}
				JOINT RightShoulder
				{
					OFFSET 0 0 0
					CHANNELS 3 Zrotation Yrotation Xrotation
					JOINT RightArm
					{
						OFFSET -3.30963 0.78377 0.14264
						CHANNELS 3 Zrotation Yrotation Xrotation
						JOINT RightForeArm
						{
							OFFSET -5.37045 -0.00000 0.00000
							CHANNELS 3 Zrotation Yrotation Xrotation
							JOINT RightHand
							{
								OFFSET -2.92792 -0.00000 0.00000
								CHANNELS 3 Zrotation Yrotation Xrotation
								JOINT RightFingerBase
								{
									OFFSET 0 0 0
									CHANNELS 3 Zrotation Yrotation Xrotation
									JOINT RightHandIndex1
									{
										OFFSET -0.78450 -0.00000 0.00000
										CHANNELS 3 Zrotation Yrotation Xrotation
										End Site
										{
											OFFSET -0.63248 -0.00000 0.00000
										}
									}
								}
								JOINT RThumb
								{
									OFFSET 0 0 0
									CHANNELS 3 Zrotation Yrotation Xrotation
									End Site
									{
										OFFSET -0.64214 -0.00000 0.64214
									}
								}
							}
						}
					}
				}
			}
		}
	}
}
MOTION
Frames: 16
Frame Time: 0.019802
0.00 0.00 0.00 -4.9615 -12.2950 -19.4669 0.0000 0.0000 0.0000 -8.6224 8.9358 4.1740 7.1138 15.4270 49.3034 2.1151 3.3885 -28.8536 2.8763 -10.4921 -30.5855 0.0000 0.0000 0.0000 19.6129 -7.8039 -1.9310 -6.7598 -15.1262 47.9598 -0.9507 12.6194 -18.2972 -0.4633 4.3659 -12.1085 -2.1681 -3.2225 -2.7318 1.0931 -4.3767 9.8640 1.7922 -2.4273 12.4242 -1.0284 -10.5791 11.9233 -6.7371 -14.6624 -2.0451 -1.0421 -7.0045 -3.2063 0.0000 0.0000 0.0000 -17.2576 -42.8360 14.6919 78.9202 -59.5310 -50.4197 -0.0000 0.0000 -6.0050 -20.6876 25.3488 -9.1836 -7.1250 0.0000 -0.0000 -47.8747 49.2174 -6.3111 0.0000 0.0000 0.0000 -24.2574 28.5436 -59.2405 -81.3305 59.7141 -52.4992 0.0000 -0.0000 -18.2698 7.4043 8.4427 1.0930 7.1250 -0.0000 -0.0000 24.1765 -21.5965 14.9371
0.00 0.00 0.00 -3.4345 -15.1679 -18.9187 0.0000 0.0000 0.0000 -11.1278 10.7271 4.8916 6.7426 15.1113 47.8941 2.1152 4.9521 -29.5946 2.4699 -9.7830 -28.2767 0.0000 0.0000 0.0000 18.0327 -5.3322 -2.0164 -6.8508 -15.2050 48.3078 -0.8898 13.5414 -18.0742 -0.3733 3.9245 -10.8644 -1.7043 -2.9493 -4.3950 1.8283 -4.0791 8.5714 2.3215 -2.2551 11.9551 0.4777 -7.9058 11.9551 -3.5800 -10.9532 -8.5755 -0.3445 -5.1721 -4.7434 0.0000 -0.0000 0.0000 18.6769 -45.7922 -23.9335 93.1997 -59.9613 -62.7707 -0.0000 0.0000 -7.4849 -0.0133 20.9884 -0.0048 -7.1250 0.0000 -0.0000 -27.6581 48.8337 -2.8131 0.0000 -0.0000 0.0000 -18.8033 30.6847 -52.2858 -82.7278 59.7992 -53.7063 0.0000 -0.0000 -11.7114 2.8878 10.3810 0.5208 7.1250 -0.0000 -0.0000 20.8854 -19.8494 13.4680
0.00 0.00 0.00 0.7732 -13.1808 -22.0145 0.0000 0.0000 0.0000 -15.8000 13.3874 7.8145 6.3964 14.8018 46.5526 2.2431 3.9021 -29.8951 2.3248 -9.5122 -27.4110 0.0000 0.0000 0.0000 12.3289 -4.0500 0.7227 -7.5895 -15.8089 51.0702 -1.4743 12.2487 -22.1100 -1.1848 6.9079 -19.4428 -1.8826 -3.0832 -5.3443 2.7154 -4.3389 8.5753 3.2991 -2.4536 12.6695 1.5731 -4.5365 11.2078 -0.1813 -5.8999 -12.3064 0.1652 -2.9378 -5.6056 -0.0000 -0.0000 0.0000 32.6884 -43.8021 -51.7105 108.6641 -58.6420 -76.0899 -0.0000 0.0000 -8.5565 7.5920 16.2356 2.1342 -7.1250 0.0000 -0.0000 -18.7565 45.4763 -0.2286 -0.0000 -0.0000 0.0000 -18.4751 30.0889 -54.4705 -84.8918 59.9012 -55.5776 0.0000 -0.0000 -17.7659 5.5572 10.0210 0.9700 7.1250 -0.0000 -0.0000 22.7030 -20.1711 14.6637
0.00 0.00 0.00 4.2621 -7.7097 -23.8909 0.0000 0.0000 0.0000 -19.4354 14.1438 9.0987 6.1052 14.5295 45.4025 2.2209 1.1180 -28.6157 2.3731 -9.6034 -27.7016 0.0000 0.0000 0.0000 8.4520 -3.0280 3.6988 -7.8390 -15.9996 51.9808 -2.1554 5.9714 -26.5373 -2.8615 10.4673 -30.5038 -0.5790 -2.1690 -6.4588 2.9412 -3.2556 8.4674 2.9673 -1.8117 13.0683 4.2101 -0.4562 12.2950 -4.2270 -0.3751 -8.8075 -1.9670 -0.0582 -4.6624 0.0000 -0.0000 0.0000 22.7164 -36.7027 -53.5413 124.6399 -54.9411 -89.4894 -0.0000 0.0000 -20.9888 -34.1177 27.0892 -17.1459 -7.1250 0.0000 -0.0000 -58.7452 48.2131 -6.9788 0.0000 -0.0000 0.0000 -14.5632 33.8412 -65.2933 -92.1167 59.9831 -61.8330 0.0000 -0.0000 -24.5091 36.7525 3.8690 2.8847 7.1250 -0.0000 -0.0000 40.9412 -21.4976 32.6470
0.00 0.00 0.00 6.1684 -1.3874 -23.8293 0.0000 0.0000 0.0000 -21.0253 12.7545 8.8569 5.8788 14.3098 44.4933 2.1056 -3.4526 -26.5931 1.7874 -8.4084 -23.9616 0.0000 0.0000 0.0000 7.2085 -3.4451 5.1078 -7.8570 -16.0130 52.0458 -2.3921 3.1326 -28.4857 -1.7650 8.3584 -23.8081 0.6531 -0.1843 -5.8279 2.4089 -0.6079 8.7442 2.1623 -0.3802 12.7820 5.3547 1.8721 11.9349 -3.6505 3.0346 -5.3425 -2.4129 1.5569 -3.7757 0.0000 0.0000 0.0000 -4.5809 -29.0245 -43.7184 139.0883 -48.6009 -100.8797 -0.0000 0.0000 -30.8768 -36.4835 25.1585 -17.4524 -7.1250 0.0000 -0.0000 -58.3089 46.4580 -3.2339 0.0000 0.0000 0.0000 -8.2076 45.2196 -70.7227 -105.1057 59.1200 -73.0433 0.0000 -0.0000 -44.1749 35.8607 2.1956 1.5863 7.1250 -0.0000 -0.0000 41.2416 -23.3585 30.3180
0.00 0.00 0.00 6.9306 0.4410 -23.1420 0.0000 0.0000 0.0000 -21.3694 12.2250 8.8449 5.6537 14.0841 43.5754 2.0261 -5.0138 -25.8076 1.7085 -8.2305 -23.4165 0.0000 0.0000 0.0000 6.9091 -3.9176 5.1386 -7.7757 -15.9518 51.7508 -2.3739 -0.2103 -29.2666 -2.8433 10.4370 -30.4039 0.4848 0.3285 -6.1343 1.6650 0.1994 8.6419 1.5807 0.0399 12.8200 6.2626 2.9367 13.8457 -6.7514 4.4538 -5.4705 -3.3889 2.4422 -3.5717 0.0000 0.0000 0.0000 -22.9577 -25.5368 -36.8168 150.0652 -40.8374 -108.6331 -0.0000 0.0000 -41.8456 -34.6902 26.3318 -17.0680 -7.1250 0.0000 -0.0000 -58.3801 47.5920 -5.6294 0.0000 0.0000 0.0000 -8.8543 46.0804 -64.4521 -120.0144 56.3061 -85.6709 0.0000 -0.0000 -30.3467 36.3582 2.6341 1.9377 7.1250 -0.0000 -0.0000 41.2455 -22.7816 31.1987
0.00 0.00 0.00 1.8224 0.0290 -23.8362 0.0000 0.0000 0.0000 -14.0278 8.5237 10.9753 5.9462 14.3760 44.7656 2.1564 -3.3098 -26.9535 2.8244 -10.4052 -30.2990 0.0000 0.0000 0.0000 14.3468 -7.8818 6.6070 -7.2292 -15.5219 49.7358 -2.3425 1.2115 -28.6436 -1.6050 7.9898 -22.6831 -3.1231 -0.8220 -6.4448 -0.5805 -0.6680 8.3207 1.0003 -0.5800 12.6884 -9.3129 -11.8069 10.9760 -18.4185 -15.7738 10.9946 -4.0400 -8.3316 0.8731 0.0000 0.0000 0.0000 -20.0276 -23.7939 -29.8019 152.5709 -38.5854 -110.2344 -0.0000 0.0000 -37.3173 -43.6401 28.6156 -24.5471 -7.1250 0.0000 -0.0000 -65.3971 47.6020 -7.3036 0.0000 0.0000 0.0000 -2.9701 49.8999 -55.8706 -134.9662 50.7850 -97.7350 0.0000 -0.0000 -51.1191 38.7807 3.4721 2.7858 7.1250 -0.0000 -0.0000 41.6487 -21.0364 34.5520
0.00 0.00 0.00 3.1471 -2.1691 -20.2381 0.0000 0.0000 0.0000 -19.3369 8.4683 2.5459 6.2573 14.6731 46.0058 1.8378 -2.3090 -25.0182 1.8437 -8.5325 -24.3437 0.0000 0.0000 0.0000 10.6274 -3.8256 -1.0426 -7.2935 -15.5741 49.9757 -1.8024 3.6634 -24.4870 -1.8162 8.4721 -24.1576 2.5075 1.6615 -2.5659 1.4296 1.8984 9.8815 0.3965 1.0764 12.0963 3.1871 6.7188 13.5987 0.0888 9.3309 12.9861 -0.6854 4.8098 2.0509 -0.0000 -0.0000 0.0000 11.5504 -30.2773 -45.2023 136.7953 -49.8580 -99.1429 -0.0000 0.0000 -35.7980 -36.9551 28.4019 -19.6896 -7.1250 0.0000 -0.0000 -61.7195 48.6107 -8.6156 -0.0000 -0.0000 0.0000 19.3123 39.7807 -50.1152 -133.2084 51.6166 -96.3651 0.0000 -0.0000 -57.5959 36.7450 2.1109 1.5752 7.1250 -0.0000 -0.0000 41.5537 -23.1247 31.1475
0.00 0.00 0.00 0.0032 4.6781 -7.8195 0.0000 0.0000 0.0000 -15.0761 -1.7907 -12.6968 5.5615 13.9895 43.1952 0.9994 -5.0690 -17.8794 1.5634 -7.8903 -22.3815 0.0000 0.0000 0.0000 16.9915 -8.7847 -17.2434 -5.8788 -14.3099 44.4934 -1.0251 1.4939 -18.6949 -1.1692 6.8638 -19.3124 3.6588 4.4283 3.2756 1.3054 5.8306 11.1415 -0.2852 3.1549 10.2463 2.2622 1.1631 7.4060 -10.0464 3.3122 19.3980 -3.4701 1.3820 4.7829 0.0000 0.0000 0.0000 1.6298 -8.0778 -28.6226 151.1691 -39.8700 -109.3479 -0.0000 0.0000 -50.9158 -42.0231 27.2926 -22.4505 -7.1250 0.0000 -0.0000 -63.2004 46.9868 -5.2240 0.0000 0.0000 0.0000 31.7144 49.1410 -41.8364 -134.6600 50.9340 -97.4976 0.0000 -0.0000 -60.4640 29.4029 3.4578 1.9467 7.1250 -0.0000 -0.0000 38.2312 -23.9434 25.5695
0.00 0.00 0.00 14.0743 9.0368 4.6957 0.0000 0.0000 0.0000 -35.9746 -2.8450 -20.9686 3.0409 10.7610 31.4780 -0.0287 -9.5488 -6.1789 0.0168 -0.8366 -2.2993 0.0000 0.0000 0.0000 -3.3874 -5.0778 -30.4382 -6.4446 -14.8458 46.7410 -0.7968 -1.4245 -17.4351 -0.2612 3.2882 -9.0821 5.6385 2.4695 7.2304 9.0022 3.0693 10.4184 6.4037 1.5695 6.7890 -0.1571 -6.7584 1.8253 -24.6883 -6.6276 13.4612 -7.7385 -4.1196 2.6999 0.0000 0.0000 0.0000 -7.0155 15.4390 -10.8536 152.8066 -38.3630 -110.3811 -0.0000 0.0000 -51.8444 -37.9307 26.5353 -19.1966 -7.1250 0.0000 -0.0000 -60.3989 47.1765 -5.1276 0.0000 0.0000 0.0000 63.9196 40.5573 -18.7992 -129.0539 53.3700 -93.0685 0.0000 -0.0000 -64.5228 19.8767 5.2314 1.8880 7.1250 -0.0000 -0.0000 32.6844 -23.7692 20.1452
0.00 0.00 0.00 16.1138 10.5609 5.9067 0.0000 0.0000 0.0000 -39.1339 -2.9547 -20.6235 2.6128 10.0401 29.1068 -0.2101 -10.7753 -3.6494 0.0052 0.4643 1.2757 0.0000 0.0000 0.0000 -6.6626 -3.1779 -29.9712 -6.4407 -14.8422 46.7257 -0.8919 -3.5590 -19.4670 -0.0615 1.5995 -4.4001 6.4270 0.7991 7.5105 10.3662 0.9499 9.6945 7.4633 0.5115 6.0147 0.4445 -7.2739 2.5185 -23.2495 -7.8169 12.3964 -7.2663 -4.5426 2.1551 0.0000 0.0000 0.0000 -5.7365 13.1424 -8.4413 152.6730 -38.4892 -110.2981 -0.0000 0.0000 -46.8725 -33.3565 25.8468 -16.0130 -7.1250 0.0000 -0.0000 -57.1340 47.4793 -5.1666 0.0000 0.0000 0.0000 65.1739 36.8653 -15.4817 -115.9144 57.3038 -82.2394 0.0000 -0.0000 -57.2290 18.8032 5.2341 1.7791 7.1250 -0.0000 -0.0000 32.0544 -23.8698 19.4976
0.00 0.00 0.00 16.8080 8.0782 6.3147 0.0000 0.0000 0.0000 -40.4674 -1.3943 -21.4584 2.4459 9.7389 28.1354 -0.2183 -10.7318 -3.3997 0.0282 1.0849 2.9824 0.0000 0.0000 0.0000 -8.0569 -2.2554 -31.3049 -6.3602 -14.7685 46.4107 -0.7510 -3.6034 -18.0647 -0.2913 3.4710 -9.5929 6.6244 0.4004 7.6172 10.1363 0.4844 9.1792 7.0719 0.2902 5.4263 -0.3297 -6.9888 2.1668 -23.2795 -7.7385 10.8341 -7.1063 -4.4696 1.8115 -0.0000 -0.0000 0.0000 -2.7203 9.2680 -7.0510 151.3461 -39.7113 -109.4611 -0.0000 0.0000 -41.0727 -29.3012 26.1703 -13.9020 -7.1250 0.0000 -0.0000 -54.8085 48.3900 -6.4261 -0.0000 -0.0000 0.0000 66.5062 31.5639 -10.5269 -98.6829 59.7132 -67.5123 0.0000 -0.0000 -47.3646 8.0963 4.3670 0.6206 7.1250 -0.0000 -0.0000 25.4288 -25.3078 13.4221
0.00 0.00 0.00 14.6288 4.8454 5.2167 0.0000 0.0000 0.0000 -38.0850 -1.1385 -21.1365 2.5530 9.9336 28.7619 0.0232 -7.9461 -6.0434 0.0200 -0.9126 -2.5084 0.0000 0.0000 0.0000 -5.3793 -1.4180 -30.5905 -5.8754 -14.3065 44.4796 -0.6447 -2.8365 -16.4590 -0.5132 4.5917 -12.7475 6.1467 0.3944 7.0988 9.2688 0.4805 8.3577 6.3440 0.2785 4.7988 -1.7965 -6.2497 2.0060 -23.7560 -6.7799 10.2257 -7.0269 -4.0409 1.8277 0.0000 0.0000 0.0000 2.8312 5.2148 -4.9417 149.9050 -40.9747 -108.5282 -0.0000 0.0000 -32.6576 -18.3724 23.6640 -7.5930 -7.1250 0.0000 -0.0000 -44.8118 48.3084 -4.5182 0.0000 0.0000 0.0000 68.4750 19.7181 -3.1386 -81.1963 59.7051 -52.3833 0.0000 -0.0000 -29.5929 0.8208 4.7860 0.0685 7.1250 -0.0000 -0.0000 20.2962 -25.1020 10.4041
0.00 0.00 0.00 10.2220 1.9446 1.4069 0.0000 0.0000 0.0000 -32.0602 1.2509 -21.9355 3.9215 12.0552 35.9275 0.3842 -6.7063 -11.2939 0.2389 -3.1456 -8.6844 0.0000 0.0000 0.0000 0.7283 -4.1482 -29.4726 -6.1624 -14.5839 45.6301 -0.6224 0.9841 -14.5998 -1.2034 6.9599 -19.5966 5.2594 0.6234 7.6245 6.7510 0.8514 8.4263 4.0961 0.4928 4.5270 -2.0182 -4.6104 3.5332 -19.0561 -5.1716 8.3818 -5.4257 -2.9552 1.3839 -0.0000 -0.0000 0.0000 1.6906 0.9457 -9.6019 145.4921 -44.4575 -105.5324 -0.0000 0.0000 -41.4974 -20.4466 24.8322 -8.8986 -7.1250 0.0000 -0.0000 -47.2898 48.8696 -5.7019 -0.0000 -0.0000 0.0000 70.4369 10.6623 6.6152 -56.9761 55.4488 -31.8375 0.0000 -0.0000 -2.0604 7.9438 10.7957 1.4972 7.1250 -0.0000 -0.0000 24.1281 -19.4197 16.2266
0.00 0.00 0.00 6.0827 -1.9351 3.9654 0.0000 0.0000 0.0000 -26.4068 -1.0841 -31.7914 6.2307 14.6482 45.9006 0.7060 -4.3024 -15.0017 0.5071 -4.5650 -12.6718 0.0000 0.0000 0.0000 6.7867 -7.5485 -39.9821 -7.3729 -15.6381 50.2711 -0.3558 7.6315 -11.1311 -0.3739 3.9274 -10.8724 6.3372 1.4917 12.3616 5.2460 2.4135 9.8689 1.7382 1.3650 3.5451 3.5592 -3.9680 0.1818 -17.2514 -4.9674 3.4561 -5.7800 -2.6136 0.4255 -0.0000 -0.0000 0.0000 -21.7355 2.0407 13.3407 132.1097 -52.1084 -95.5008 -0.0000 0.0000 -46.1178 -19.6956 25.5514 -8.7770 -7.1250 0.0000 -0.0000 -47.2625 49.5310 -6.6272 -0.0000 -0.0000 0.0000 54.5606 24.5902 33.5900 -24.6082 35.8008 -8.0596 0.0000 0.0000 2.2274 13.1461 9.3269 2.1677 7.1250 -0.0000 -0.0000 27.6697 -20.5850 18.4180
0.00 0.00 0.00 6.2223 0.3006 8.1559 0.0000 0.0000 0.0000 -26.3841 -2.5442 -37.9312 6.4412 14.8427 46.7276 0.4932 -7.3386 -12.7566 0.1503 -2.4982 -6.8846 0.0000 0.0000 0.0000 7.2115 -7.4283 -45.6352 -7.6035 -15.8198 51.1218 -0.3688 6.1387 -10.9872 -0.2977 3.5086 -9.6981 7.0634 1.2800 13.8694 6.0267 2.3342 10.1729 2.1339 1.3320 3.0801 4.1383 -3.3841 -1.4213 -19.2231 -4.5551 0.7765 -6.5051 -2.3597 -0.0891 -0.0000 0.0000 0.0000 -22.9652 1.3593 34.1623 116.4302 -57.1885 -82.6732 -0.0000 0.0000 -42.9067 -9.3638 24.8523 -3.9645 -7.1250 0.0000 -0.0000 -38.2378 50.6710 -6.1218 -0.0000 0.0000 0.0000 43.6215 27.8561 40.9449 -24.7942 35.9929 -8.1687 0.0000 -0.0000 -2.4754 16.2246 8.8168 2.5538 7.1250 -0.0000 -0.0000 29.6460 -20.8636 19.9560
